<?xml version="1.0" encoding="iso-8859-1"?>
<!-- Generator: Adobe Illustrator 18.0.0, SVG Export Plug-In . SVG Version: 6.00 Build 0)  -->
<!DOCTYPE svg PUBLIC "-//W3C//DTD SVG 1.1//EN" "http://www.w3.org/Graphics/SVG/1.1/DTD/svg11.dtd">
<svg version="1.1" id="Capa_1" xmlns="http://www.w3.org/2000/svg" xmlns:xlink="http://www.w3.org/1999/xlink" x="0px" y="0px"
	 viewBox="0 0 135.528 135.528" style="enable-background:new 0 0 135.528 135.528;" xml:space="preserve">
<g>
	<linearGradient id="SVGID_1_" gradientUnits="userSpaceOnUse" x1="20.606" y1="20.6062" x2="116.1779" y2="116.1781">
		<stop  offset="0" style="stop-color:#B3E7E4"/>
		<stop  offset="1" style="stop-color:#81D7D2"/>
	</linearGradient>
	<circle style="fill:url(#SVGID_1_);" cx="67.764" cy="67.764" r="67.764"/>
	<g>
		<g>
			<circle style="fill:#FFD800;" cx="67.894" cy="67.675" r="32.646"/>
			<g>
				<g>
					<path style="fill:#FFF99A;" d="M70.694,25.045c0,3.625-2.93,6.563-2.93,6.563s-2.93-2.938-2.93-6.563
						c0-3.625,2.93-6.564,2.93-6.564S70.694,21.42,70.694,25.045z"/>
				</g>
				<g>
					<path style="fill:#FFF99A;" d="M83.751,28.041c-1.12,3.448-4.815,5.337-4.815,5.337s-1.878-3.7-0.758-7.148
						c1.12-3.447,4.815-5.337,4.815-5.337S84.871,24.593,83.751,28.041z"/>
				</g>
				<g>
					<path style="fill:#FFF99A;" d="M95.245,34.926c-2.131,2.933-6.229,3.587-6.229,3.587s-0.644-4.1,1.487-7.032
						c2.13-2.933,6.228-3.588,6.228-3.588S97.375,31.993,95.245,34.926z"/>
				</g>
				<g>
					<path style="fill:#FFF99A;" d="M104.047,45.025c-2.933,2.131-7.033,1.488-7.033,1.488s0.655-4.098,3.588-6.229
						c2.933-2.131,7.033-1.487,7.033-1.487S106.98,42.894,104.047,45.025z"/>
				</g>
				<g>
					<path style="fill:#FFF99A;" d="M109.298,57.35c-3.448,1.12-7.148-0.758-7.148-0.758s1.89-3.695,5.337-4.816
						c3.448-1.12,7.148,0.759,7.148,0.759S112.746,56.23,109.298,57.35z"/>
				</g>
				<g>
					<path style="fill:#FFF99A;" d="M110.483,70.695c-3.625,0-6.563-2.931-6.563-2.931s2.938-2.93,6.563-2.93
						c3.626,0,6.564,2.93,6.564,2.93S114.108,70.695,110.483,70.695z"/>
				</g>
				<g>
					<path style="fill:#FFF99A;" d="M107.487,83.752c-3.447-1.12-5.337-4.815-5.337-4.815s3.7-1.878,7.148-0.758
						c3.447,1.12,5.336,4.815,5.336,4.815S110.935,84.872,107.487,83.752z"/>
				</g>
				<g>
					<path style="fill:#FFF99A;" d="M100.603,95.245c-2.933-2.131-3.588-6.229-3.588-6.229s4.1-0.643,7.033,1.488
						c2.933,2.131,3.588,6.229,3.588,6.229S103.536,97.376,100.603,95.245z"/>
				</g>
				<g>
					<path style="fill:#FFF99A;" d="M90.503,104.047c-2.131-2.933-1.487-7.033-1.487-7.033s4.098,0.655,6.229,3.588
						c2.131,2.933,1.487,7.033,1.487,7.033S92.634,106.98,90.503,104.047z"/>
				</g>
				<g>
					<path style="fill:#FFF99A;" d="M78.179,109.298c-1.121-3.448,0.758-7.148,0.758-7.148s3.695,1.889,4.815,5.337
						c1.12,3.448-0.758,7.148-0.758,7.148S79.299,112.746,78.179,109.298z"/>
				</g>
				<g>
					<path style="fill:#FFF99A;" d="M64.834,110.484c0-3.626,2.93-6.564,2.93-6.564s2.93,2.938,2.93,6.564
						c0,3.625-2.93,6.564-2.93,6.564S64.834,114.109,64.834,110.484z"/>
				</g>
				<g>
					<path style="fill:#FFF99A;" d="M51.776,107.487c1.12-3.448,4.815-5.337,4.815-5.337s1.878,3.7,0.758,7.148
						c-1.121,3.448-4.815,5.337-4.815,5.337S50.656,110.935,51.776,107.487z"/>
				</g>
				<g>
					<path style="fill:#FFF99A;" d="M40.284,100.602c2.131-2.933,6.229-3.588,6.229-3.588s0.643,4.1-1.488,7.033
						c-2.13,2.933-6.229,3.588-6.229,3.588S38.153,103.535,40.284,100.602z"/>
				</g>
				<g>
					<path style="fill:#FFF99A;" d="M31.481,90.504c2.933-2.131,7.033-1.488,7.033-1.488s-0.655,4.098-3.588,6.229
						c-2.933,2.131-7.032,1.487-7.032,1.487S28.548,92.634,31.481,90.504z"/>
				</g>
				<g>
					<path style="fill:#FFF99A;" d="M26.23,78.178c3.447-1.12,7.148,0.758,7.148,0.758s-1.89,3.695-5.337,4.815
						c-3.448,1.12-7.148-0.759-7.148-0.759S22.783,79.299,26.23,78.178z"/>
				</g>
				<g>
					<path style="fill:#FFF99A;" d="M25.045,64.834c3.625,0,6.564,2.93,6.564,2.93s-2.938,2.931-6.564,2.931
						c-3.625,0-6.563-2.931-6.563-2.931S21.42,64.834,25.045,64.834z"/>
				</g>
				<g>
					<path style="fill:#FFF99A;" d="M28.042,51.776c3.447,1.121,5.337,4.816,5.337,4.816s-3.701,1.878-7.148,0.758
						c-3.448-1.12-5.337-4.815-5.337-4.815S24.594,50.656,28.042,51.776z"/>
				</g>
				<g>
					<path style="fill:#FFF99A;" d="M34.926,40.284c2.933,2.131,3.588,6.229,3.588,6.229s-4.1,0.643-7.033-1.488
						c-2.933-2.131-3.587-6.229-3.587-6.229S31.993,38.153,34.926,40.284z"/>
				</g>
				<g>
					<path style="fill:#FFF99A;" d="M45.025,31.482c2.131,2.933,1.488,7.032,1.488,7.032s-4.098-0.655-6.229-3.587
						c-2.131-2.933-1.488-7.033-1.488-7.033S42.895,28.549,45.025,31.482z"/>
				</g>
				<g>
					<path style="fill:#FFF99A;" d="M57.35,26.23c1.12,3.448-0.758,7.148-0.758,7.148s-3.695-1.889-4.815-5.337
						c-1.12-3.448,0.758-7.148,0.758-7.148S56.229,22.783,57.35,26.23z"/>
				</g>
				<g>
					<path style="fill:#FFF99A;" d="M70.694,25.045c0,3.625-2.93,6.563-2.93,6.563s-2.93-2.938-2.93-6.563
						c0-3.625,2.93-6.564,2.93-6.564S70.694,21.42,70.694,25.045z"/>
				</g>
			</g>
		</g>
	</g>
</g>
<g>
</g>
<g>
</g>
<g>
</g>
<g>
</g>
<g>
</g>
<g>
</g>
<g>
</g>
<g>
</g>
<g>
</g>
<g>
</g>
<g>
</g>
<g>
</g>
<g>
</g>
<g>
</g>
<g>
</g>
</svg>
